0
SECTION
2
HEADER
9
$INSUNITS
70
4
0
ENDSEC
0
SECTION
2
TABLES
0
TABLE
2
LTYPE
0
LTYPE
72
65
70
64
2
CONTINUOUS
3
______
73
0
40
0
0
ENDTAB
0
TABLE
2
LAYER
0
ENDTAB
0
ENDSEC
0
SECTION
2
ENTITIES
0
LINE
8
0
10
71.6999782
20
-125.1104886
11
69.2927181
21
-121.9159465
0
LINE
8
0
10
68.909453
20
-120.4339703
11
76.8900763
21
-63.6488841
0
LINE
8
0
10
98.503676
20
-125.4190284
11
98.5022003
21
-125.4295282
0
LINE
8
0
10
98.5022003
20
-125.4295282
11
94.6460469
21
-128.3353482
0
LINE
8
0
10
93.1640707
20
-128.7186133
11
73.018903
21
-125.8873947
0
LINE
8
0
10
77.6669824
20
-62.3299593
11
80.8615245
21
-59.9226992
0
LINE
8
0
10
82.3435007
20
-59.5394341
11
102.4886684
21
-62.3706527
0
LINE
8
0
10
103.8075932
20
-63.1475588
11
104.2503921
21
-63.7351728
0
LINE
8
0
10
118.6669697
20
-126.6319489
11
118.4620819
21
-127.2625288
0
LINE
8
0
10
117.9650159
20
-127.8445183
11
114.0319229
21
-129.8485293
0
LINE
8
0
10
112.5059079
20
-129.9686293
11
98.503676
21
-125.4190284
0
LINE
8
0
10
107.7497761
20
-63.1495768
11
108.0343901
21
-62.2736251
0
LINE
8
0
10
108.0343901
20
-62.2736251
11
112.3365501
21
-60.0815651
0
LINE
8
0
10
113.8625651
20
-59.9614651
11
127.4816442
21
-64.3865721
0
LINE
8
0
10
124.3463258
20
-126.4964315
11
121.253123
21
-125.3705977
0
LINE
8
0
10
129.9790635
20
-63.1684993
11
130.3725529
21
-62.087396
0
LINE
8
0
10
130.8896272
20
-61.5231083
11
134.8902634
21
-59.657581
0
LINE
8
0
10
136.4195401
20
-59.5908114
11
155.535844
21
-66.548577
0
LINE
8
0
10
156.6644194
20
-67.5827256
11
158.3548925
21
-71.2079568
0
LINE
8
0
10
158.4216621
20
-72.7372336
11
157.4679682
21
-75.3574862
0
LINE
8
0
10
126.0749038
20
-136.0130607
11
124.7068233
21
-132.2542903
0
LINE
8
0
10
124.7735929
20
-130.7250136
11
125.4749011
21
-129.2210533
0
LINE
8
0
10
138.7553696
20
-142.572403
11
127.1090524
21
-137.1416361
0
LINE
8
0
10
158.5021168
20
-77.8541419
11
173.8616276
21
-85.0163994
0
LINE
8
0
10
174.8957762
20
-86.1449748
11
175.7801672
21
-88.574819
0
LINE
8
0
10
176.8143158
20
-89.7033943
11
189.8136207
21
-95.7650697
0
LINE
8
0
10
190.8477693
20
-96.8936451
11
192.4991886
21
-101.4308823
0
LINE
8
0
10
192.4991886
20
-101.4308823
11
192.4780717
21
-101.4761677
0
LINE
8
0
10
132.1192922
20
-165.2434765
11
131.084016
21
-161.3797732
0
LINE
8
0
10
131.2838167
20
-159.862135
11
139.6421839
21
-145.3850185
0
LINE
8
0
10
146.2378607
20
-174.0712437
11
133.0511438
21
-166.4578891
0
LINE
8
0
10
146.0788954
20
-174.6645104
11
146.2378607
21
-174.0712437
0
LINE
8
0
10
154.3285099
20
-188.9532619
11
146.0788954
21
-174.6645104
0
LINE
8
0
10
153.8734264
20
-190.7414897
11
154.3285099
21
-189.9532619
0
LINE
8
0
10
185.1281133
20
-208.7316758
11
184.5437605
21
-209.7438046
0
LINE
8
0
10
183.9365541
20
-210.2097304
11
164.8524103
21
-215.3233113
0
LINE
8
0
10
163.3347723
20
-215.1235104
11
159.8706708
21
-213.1235104
0
LINE
8
0
10
158.9388191
20
-211.9090976
11
153.6736255
21
-192.2591277
0
LINE
8
0
10
334.2881131
20
-128.3353482
11
330.4319597
21
-125.4295282
0
LINE
8
0
10
330.4319597
20
-125.4295282
11
330.430484
21
-125.4190284
0
LINE
8
0
10
352.0440837
20
-63.6488841
11
360.024707
21
-120.4339703
0
LINE
8
0
10
359.6414419
20
-121.9159465
11
357.2341818
21
-125.1104886
0
LINE
8
0
10
355.915257
20
-125.8873947
11
335.7700893
21
-128.7186133
0
LINE
8
0
10
324.6837679
20
-63.7351728
11
325.3758467
21
-62.8167532
0
LINE
8
0
10
326.0353091
20
-62.4283001
11
346.5906593
21
-59.5394341
0
LINE
8
0
10
348.0726355
20
-59.9226992
11
351.2671776
21
-62.3299593
0
LINE
8
0
10
314.9022371
20
-129.8485293
11
311.3382111
21
-128.0325673
0
LINE
8
0
10
310.3440791
20
-126.8685883
11
310.2671903
21
-126.6319489
0
LINE
8
0
10
330.430484
20
-125.4190284
11
316.4282521
21
-129.9686293
0
LINE
8
0
10
301.4525158
20
-64.3865721
11
315.0715949
21
-59.9614651
0
LINE
8
0
10
316.5976099
20
-60.0815651
11
320.1616359
21
-61.8975271
0
LINE
8
0
10
321.1557679
20
-63.0615061
11
321.1843839
21
-63.1495768
0
LINE
8
0
10
307.681037
20
-125.3705977
11
304.5878342
21
-126.4964315
0
LINE
8
0
10
271.4661918
20
-75.3574862
11
270.5124979
21
-72.7372336
0
LINE
8
0
10
270.5792675
20
-71.2079568
11
272.2697406
21
-67.5827256
0
LINE
8
0
10
273.398316
20
-66.548577
11
292.5146199
21
-59.5908114
0
LINE
8
0
10
294.0438966
20
-59.657581
11
297.6691279
21
-61.3480541
0
LINE
8
0
10
298.7032765
20
-62.4766295
11
298.9550965
21
-63.1684993
0
LINE
8
0
10
303.4592589
20
-129.2210533
11
304.1605671
21
-130.7250136
0
LINE
8
0
10
304.2273367
20
-132.2542903
11
302.8592562
21
-136.0130607
0
LINE
8
0
10
301.8251076
20
-137.1416361
11
290.1787904
21
-142.572403
0
LINE
8
0
10
253.1539928
20
-88.574819
11
254.0383838
21
-86.1449748
0
LINE
8
0
10
255.0725324
20
-85.0163994
11
270.4320432
21
-77.8541419
0
LINE
8
0
10
236.4560883
20
-101.4761677
11
236.4349714
21
-101.4308823
0
LINE
8
0
10
236.4349714
20
-101.4308823
11
238.0863907
21
-96.8936451
0
LINE
8
0
10
239.1205393
20
-95.7650697
11
252.1198442
21
-89.7033943
0
LINE
8
0
10
289.2919761
20
-145.3850185
11
297.6503433
21
-159.862135
0
LINE
8
0
10
297.850144
20
-161.3797732
11
296.8148678
21
-165.2434765
0
LINE
8
0
10
295.8830162
20
-166.4578891
11
282.6962993
21
-174.0712437
0
LINE
8
0
10
282.6962993
20
-174.0712437
11
282.8552646
21
-174.6645104
0
LINE
8
0
10
282.8552646
20
-174.6645104
11
274.8943252
21
-188.4532619
0
LINE
8
0
10
269.0634892
20
-213.1235104
11
265.5993877
21
-215.1235104
0
LINE
8
0
10
264.0817497
20
-215.3233113
11
245.3977055
21
-210.3169367
0
LINE
8
0
10
244.1832927
20
-209.385085
11
243.5173716
21
-208.2316758
0
LINE
8
0
10
274.8943252
20
-190.4532619
11
275.2678404
21
-191.1002093
0
LINE
8
0
10
275.3677408
20
-191.8590283
11
269.9953409
21
-211.9090976
0
LINE
8
0
10
236.4560883
20
-101.4761677
11
192.4780717
21
-101.4761677
0
LINE
8
0
10
186.8601641
20
-207.7316758
11
242.6513462
21
-207.7316758
0
ARC
8
0
10
70.8899891
20
-120.7123165
40
2
50
172.0000003
51
216.9999993
0
ARC
8
0
10
78.8706124
20
-63.9272303
40
2
50
126.9999993
51
172.0000003
0
ARC
8
0
10
82.0651545
20
-61.5199702
40
2
50
82.0000003
51
126.9999993
0
ARC
8
0
10
102.2103222
20
-64.3511888
40
2
50
36.9999993
51
82.0000003
0
ARC
8
0
10
105.8476631
20
-62.5315428
40
2
50
216.9999993
51
341.9999994
0
ARC
8
0
10
113.2445311
20
-61.8635781
40
2
50
71.9999994
51
117.0000006
0
ARC
8
0
10
128.0996782
20
-62.4844591
40
2
50
251.9999994
51
340.0000019
0
ARC
8
0
10
135.7354999
20
-61.4701966
40
2
50
70.0000019
51
115.0000017
0
ARC
8
0
10
154.8518038
20
-68.4279622
40
2
50
25.0000017
51
70.0000019
0
ARC
8
0
10
156.5422769
20
-72.0531934
40
2
50
340.0000019
51
25.0000017
0
ARC
8
0
10
159.3473534
20
-76.0415264
40
2
50
160.0000019
51
244.9999983
0
ARC
8
0
10
173.016391
20
-86.829015
40
2
50
19.9999981
51
64.9999983
0
ARC
8
0
10
177.6595524
20
-87.8907788
40
2
50
199.9999981
51
244.9999983
0
ARC
8
0
10
188.9683841
20
-97.5776853
40
2
50
19.9999981
51
64.9999983
0
ARC
8
0
10
239.9657759
20
-97.5776853
40
2
50
115.0000017
51
160.0000019
0
ARC
8
0
10
251.2746076
20
-87.8907788
40
2
50
295.0000017
51
340.0000019
0
ARC
8
0
10
255.917769
20
-86.829015
40
2
50
115.0000017
51
160.0000019
0
ARC
8
0
10
269.5868066
20
-76.0415264
40
2
50
295.0000017
51
19.9999981
0
ARC
8
0
10
272.3918831
20
-72.0531934
40
2
50
154.9999983
51
199.9999981
0
ARC
8
0
10
274.0823562
20
-68.4279622
40
2
50
109.9999981
51
154.9999983
0
ARC
8
0
10
293.1986601
20
-61.4701966
40
2
50
64.9999983
51
109.9999981
0
ARC
8
0
10
296.8238913
20
-63.1606697
40
2
50
19.9999981
51
64.9999983
0
ARC
8
0
10
300.8344818
20
-62.4844591
40
2
50
199.9999981
51
288.0000006
0
ARC
8
0
10
315.6896289
20
-61.8635781
40
2
50
62.9999994
51
108.0000006
0
ARC
8
0
10
319.2536549
20
-63.6795401
40
2
50
18.0000006
51
62.9999994
0
ARC
8
0
10
323.0864969
20
-62.5315428
40
2
50
198.0000006
51
323.0000007
0
ARC
8
0
10
346.8690055
20
-61.5199702
40
2
50
53.0000007
51
97.9999997
0
ARC
8
0
10
350.0635476
20
-63.9272303
40
2
50
7.9999997
51
53.0000007
0
ARC
8
0
10
358.0441709
20
-120.7123165
40
2
50
323.0000007
51
7.9999997
0
ARC
8
0
10
355.6369108
20
-123.9068586
40
2
50
277.9999997
51
323.0000007
0
ARC
8
0
10
335.4917431
20
-126.7380772
40
2
50
233.0000007
51
277.9999997
0
ARC
8
0
10
315.8102181
20
-128.0665163
40
2
50
242.9999994
51
288.0000006
0
ARC
8
0
10
312.2461921
20
-126.2505543
40
2
50
198.0000006
51
242.9999994
0
ARC
8
0
10
308.3650773
20
-127.2499829
40
2
50
18.0000006
51
109.9999981
0
ARC
8
0
10
305.2718744
20
-128.3758167
40
2
50
109.9999981
51
205.0000017
0
ARC
8
0
10
302.3479515
20
-131.5702501
40
2
50
340.0000019
51
25.0000017
0
ARC
8
0
10
300.979871
20
-135.3290205
40
2
50
295.0000017
51
340.0000019
0
ARC
8
0
10
291.0240269
20
-144.3850185
40
2
50
115.0000017
51
210.0000001
0
ARC
8
0
10
295.9182925
20
-160.862135
40
2
50
344.9999966
51
30.0000001
0
ARC
8
0
10
294.8830162
20
-164.7258383
40
2
50
300.0000001
51
344.9999966
0
ARC
8
0
10
276.626376
20
-189.4532619
40
2
50
149.9999999
51
210.0000001
0
ARC
8
0
10
268.0634892
20
-211.3914596
40
2
50
300.0000001
51
345.0000021
0
ARC
8
0
10
264.5993877
20
-213.3914596
40
2
50
255.0000021
51
300.0000001
0
ARC
8
0
10
245.9153435
20
-208.385085
40
2
50
210.0000001
51
255.0000021
0
ARC
8
0
10
186.8601641
20
-209.7316758
40
2
50
90
51
149.9999999
0
ARC
8
0
10
164.3347723
20
-213.3914596
40
2
50
239.9999999
51
284.9999979
0
ARC
8
0
10
160.8706708
20
-211.3914596
40
2
50
194.9999979
51
239.9999999
0
ARC
8
0
10
155.6054772
20
-191.7414897
40
2
50
149.9999999
51
194.9999979
0
ARC
8
0
10
134.0511438
20
-164.7258383
40
2
50
195.0000034
51
239.9999999
0
ARC
8
0
10
133.0158675
20
-160.862135
40
2
50
149.9999999
51
195.0000034
0
ARC
8
0
10
137.9101331
20
-144.3850185
40
2
50
329.9999999
51
64.9999983
0
ARC
8
0
10
127.954289
20
-135.3290205
40
2
50
199.9999981
51
244.9999983
0
ARC
8
0
10
126.5862085
20
-131.5702501
40
2
50
154.9999983
51
199.9999981
0
ARC
8
0
10
123.6622856
20
-128.3758167
40
2
50
334.9999983
51
70.0000019
0
ARC
8
0
10
120.5690827
20
-127.2499829
40
2
50
70.0000019
51
161.9999994
0
ARC
8
0
10
113.1239419
20
-128.0665163
40
2
50
251.9999994
51
297.0000006
0
ARC
8
0
10
93.4424169
20
-126.7380772
40
2
50
262.0000003
51
306.9999993
0
ARC
8
0
10
73.2972492
20
-123.9068586
40
2
50
216.9999993
51
262.0000003
0
ARC
8
0
10
131.3122455
20
-62.4294161
40
1
50
115.0000017
51
160.0000019
0
ARC
8
0
10
326.1744822
20
-63.4185682
40
1
50
97.9999997
51
143.0000007
0
ARC
8
0
10
274.401815
20
-191.6002093
40
1
50
345.0000021
51
30.0000001
0
ARC
8
0
10
242.6513462
20
-208.7316758
40
1
50
30.0000001
51
90
0
ARC
8
0
10
183.6777351
20
-209.2438046
40
1
50
284.9999979
51
329.9999999
0
ARC
8
0
10
153.4624845
20
-189.4532619
40
1
50
329.9999999
51
30.0000001
0
ARC
8
0
10
117.5110254
20
-126.9535118
40
1
50
297.0000006
51
341.9999994
0
ENDSEC
0
EOF