0
SECTION
2
HEADER
9
$INSUNITS
70
4
0
ENDSEC
0
SECTION
2
TABLES
0
TABLE
2
LTYPE
0
LTYPE
72
65
70
64
2
CONTINUOUS
3
______
73
0
40
0
0
ENDTAB
0
TABLE
2
LAYER
0
ENDTAB
0
ENDSEC
0
SECTION
2
ENTITIES
0
LINE
8
0
10
77.4496421
20
-102.7791465
11
95.2744673
21
-105.2842623
0
LINE
8
0
10
95.2744673
20
-105.2842623
11
92.7693515
21
-123.1090875
0
LINE
8
0
10
92.7693515
20
-123.1090875
11
74.9445263
21
-120.6039717
0
LINE
8
0
10
74.9445263
20
-120.6039717
11
77.4496421
21
-102.7791465
0
LINE
8
0
10
80.093931
20
-83.9640532
11
97.9187562
21
-86.469169
0
LINE
8
0
10
97.9187562
20
-86.469169
11
95.4136404
21
-104.2939942
0
LINE
8
0
10
95.4136404
20
-104.2939942
11
77.5888152
21
-101.7888784
0
LINE
8
0
10
77.5888152
20
-101.7888784
11
80.093931
21
-83.9640532
0
LINE
8
0
10
82.7382199
20
-65.1489599
11
100.5630451
21
-67.6540757
0
LINE
8
0
10
100.5630451
20
-67.6540757
11
98.0579293
21
-85.4789009
0
LINE
8
0
10
98.0579293
20
-85.4789009
11
80.2331041
21
-82.9737851
0
LINE
8
0
10
80.2331041
20
-82.9737851
11
82.7382199
21
-65.1489599
0
LINE
8
0
10
101.5345579
20
-101.6944594
11
118.6535752
21
-107.2567653
0
LINE
8
0
10
118.6535752
20
-107.2567653
11
113.0912693
21
-124.3757826
0
LINE
8
0
10
113.0912693
20
-124.3757826
11
95.972252
21
-118.8134767
0
LINE
8
0
10
95.972252
20
-118.8134767
11
101.5345579
21
-101.6944594
0
LINE
8
0
10
107.4058808
20
-83.6243856
11
124.5248981
21
-89.1866915
0
LINE
8
0
10
124.5248981
20
-89.1866915
11
118.9625922
21
-106.3057088
0
LINE
8
0
10
118.9625922
20
-106.3057088
11
101.8435749
21
-100.7434029
0
LINE
8
0
10
101.8435749
20
-100.7434029
11
107.4058808
21
-83.6243856
0
LINE
8
0
10
113.2772037
20
-65.5543118
11
130.396221
21
-71.1166177
0
LINE
8
0
10
130.396221
20
-71.1166177
11
124.8339151
21
-88.235635
0
LINE
8
0
10
124.8339151
20
-88.235635
11
107.7148978
21
-82.6733291
0
LINE
8
0
10
107.7148978
20
-82.6733291
11
113.2772037
21
-65.5543118
0
LINE
8
0
10
122.6425823
20
-100.8681419
11
139.5570495
21
-107.0245045
0
LINE
8
0
10
139.5570495
20
-107.0245045
11
133.4006869
21
-123.9389717
0
LINE
8
0
10
133.4006869
20
-123.9389717
11
116.4862197
21
-117.7826091
0
LINE
8
0
10
116.4862197
20
-117.7826091
11
122.6425823
21
-100.8681419
0
LINE
8
0
10
129.140965
20
-83.0139821
11
146.0554322
21
-89.1703447
0
LINE
8
0
10
146.0554322
20
-89.1703447
11
139.8990696
21
-106.0848119
0
LINE
8
0
10
139.8990696
20
-106.0848119
11
122.9846024
21
-99.9284493
0
LINE
8
0
10
122.9846024
20
-99.9284493
11
129.140965
21
-83.0139821
0
LINE
8
0
10
135.6393478
20
-65.1598223
11
152.553815
21
-71.3161849
0
LINE
8
0
10
152.553815
20
-71.3161849
11
146.3974524
21
-88.2306521
0
LINE
8
0
10
146.3974524
20
-88.2306521
11
129.4829852
21
-82.0742895
0
LINE
8
0
10
129.4829852
20
-82.0742895
11
135.6393478
21
-65.1598223
0
LINE
8
0
10
138.1023874
20
-116.3385313
11
154.4159275
21
-123.94566
0
LINE
8
0
10
154.4159275
20
-123.94566
11
146.8087988
21
-140.2592001
0
LINE
8
0
10
146.8087988
20
-140.2592001
11
130.4952587
21
-132.6520714
0
LINE
8
0
10
130.4952587
20
-132.6520714
11
138.1023874
21
-116.3385313
0
LINE
8
0
10
146.1321342
20
-99.1186833
11
162.4456743
21
-106.725812
0
LINE
8
0
10
162.4456743
20
-106.725812
11
154.8385456
21
-123.0393521
0
LINE
8
0
10
154.8385456
20
-123.0393521
11
138.5250055
21
-115.4322234
0
LINE
8
0
10
138.5250055
20
-115.4322234
11
146.1321342
21
-99.1186833
0
LINE
8
0
10
154.1618812
20
-81.8988354
11
170.4754213
21
-89.5059641
0
LINE
8
0
10
170.4754213
20
-89.5059641
11
162.8682926
21
-105.8195042
0
LINE
8
0
10
162.8682926
20
-105.8195042
11
146.5547525
21
-98.2123755
0
LINE
8
0
10
146.5547525
20
-98.2123755
11
154.1618812
21
-81.8988354
0
LINE
8
0
10
154.0543804
20
-127.0872015
11
170.3679205
21
-134.6943302
0
LINE
8
0
10
170.3679205
20
-134.6943302
11
162.7607918
21
-151.0078703
0
LINE
8
0
10
162.7607918
20
-151.0078703
11
146.4472517
21
-143.4007416
0
LINE
8
0
10
146.4472517
20
-143.4007416
11
154.0543804
21
-127.0872015
0
LINE
8
0
10
162.0841275
20
-109.8673537
11
178.3976676
21
-117.4744824
0
LINE
8
0
10
178.3976676
20
-117.4744824
11
170.7905389
21
-133.7880225
0
LINE
8
0
10
170.7905389
20
-133.7880225
11
154.4769988
21
-126.1808938
0
LINE
8
0
10
154.4769988
20
-126.1808938
11
162.0841275
21
-109.8673537
0
LINE
8
0
10
170.1138743
20
-92.6475057
11
186.4274144
21
-100.2546344
0
LINE
8
0
10
186.4274144
20
-100.2546344
11
178.8202857
21
-116.5681745
0
LINE
8
0
10
178.8202857
20
-116.5681745
11
162.5067456
21
-108.9610458
0
LINE
8
0
10
162.5067456
20
-108.9610458
11
170.1138743
21
-92.6475057
0
LINE
8
0
10
145.8157557
20
-146.6920786
11
161.4042129
21
-155.6920786
0
LINE
8
0
10
161.4042129
20
-155.6920786
11
152.4042129
21
-171.2805358
0
LINE
8
0
10
152.4042129
20
-171.2805358
11
136.8157557
21
-162.2805358
0
LINE
8
0
10
136.8157557
20
-162.2805358
11
145.8157557
21
-146.6920786
0
LINE
8
0
10
167.4304924
20
-164.6465612
11
176.4304924
21
-180.2350184
0
LINE
8
0
10
176.4304924
20
-180.2350184
11
160.8420352
21
-189.2350184
0
LINE
8
0
10
160.8420352
20
-189.2350184
11
151.8420352
21
-173.6465612
0
LINE
8
0
10
151.8420352
20
-173.6465612
11
167.4304924
21
-164.6465612
0
LINE
8
0
10
176.6761078
20
-187.3085328
11
181.3348506
21
-204.6951976
0
LINE
8
0
10
181.3348506
20
-204.6951976
11
163.9481858
21
-209.3539404
0
LINE
8
0
10
163.9481858
20
-209.3539404
11
159.289443
21
-191.9672756
0
LINE
8
0
10
159.289443
20
-191.9672756
11
176.6761078
21
-187.3085328
0
LINE
8
0
10
333.6596927
20
-105.2842623
11
351.4845179
21
-102.7791465
0
LINE
8
0
10
351.4845179
20
-102.7791465
11
353.9896337
21
-120.6039717
0
LINE
8
0
10
353.9896337
20
-120.6039717
11
336.1648085
21
-123.1090875
0
LINE
8
0
10
336.1648085
20
-123.1090875
11
333.6596927
21
-105.2842623
0
LINE
8
0
10
331.0154038
20
-86.469169
11
348.840229
21
-83.9640532
0
LINE
8
0
10
348.840229
20
-83.9640532
11
351.3453448
21
-101.7888784
0
LINE
8
0
10
351.3453448
20
-101.7888784
11
333.5205196
21
-104.2939942
0
LINE
8
0
10
333.5205196
20
-104.2939942
11
331.0154038
21
-86.469169
0
LINE
8
0
10
328.3711149
20
-67.6540757
11
346.1959401
21
-65.1489599
0
LINE
8
0
10
346.1959401
20
-65.1489599
11
348.7010559
21
-82.9737851
0
LINE
8
0
10
348.7010559
20
-82.9737851
11
330.8762307
21
-85.4789009
0
LINE
8
0
10
330.8762307
20
-85.4789009
11
328.3711149
21
-67.6540757
0
LINE
8
0
10
310.2805848
20
-107.2567653
11
327.3996021
21
-101.6944594
0
LINE
8
0
10
327.3996021
20
-101.6944594
11
332.961908
21
-118.8134767
0
LINE
8
0
10
332.961908
20
-118.8134767
11
315.8428907
21
-124.3757826
0
LINE
8
0
10
315.8428907
20
-124.3757826
11
310.2805848
21
-107.2567653
0
LINE
8
0
10
304.4092619
20
-89.1866915
11
321.5282792
21
-83.6243856
0
LINE
8
0
10
321.5282792
20
-83.6243856
11
327.0905851
21
-100.7434029
0
LINE
8
0
10
327.0905851
20
-100.7434029
11
309.9715678
21
-106.3057088
0
LINE
8
0
10
309.9715678
20
-106.3057088
11
304.4092619
21
-89.1866915
0
LINE
8
0
10
298.537939
20
-71.1166177
11
315.6569563
21
-65.5543118
0
LINE
8
0
10
315.6569563
20
-65.5543118
11
321.2192622
21
-82.6733291
0
LINE
8
0
10
321.2192622
20
-82.6733291
11
304.1002449
21
-88.235635
0
LINE
8
0
10
304.1002449
20
-88.235635
11
298.537939
21
-71.1166177
0
LINE
8
0
10
289.3771105
20
-107.0245045
11
306.2915777
21
-100.8681419
0
LINE
8
0
10
306.2915777
20
-100.8681419
11
312.4479403
21
-117.7826091
0
LINE
8
0
10
312.4479403
20
-117.7826091
11
295.5334731
21
-123.9389717
0
LINE
8
0
10
295.5334731
20
-123.9389717
11
289.3771105
21
-107.0245045
0
LINE
8
0
10
282.8787278
20
-89.1703447
11
299.793195
21
-83.0139821
0
LINE
8
0
10
299.793195
20
-83.0139821
11
305.9495576
21
-99.9284493
0
LINE
8
0
10
305.9495576
20
-99.9284493
11
289.0350904
21
-106.0848119
0
LINE
8
0
10
289.0350904
20
-106.0848119
11
282.8787278
21
-89.1703447
0
LINE
8
0
10
276.380345
20
-71.3161849
11
293.2948122
21
-65.1598223
0
LINE
8
0
10
293.2948122
20
-65.1598223
11
299.4511748
21
-82.0742895
0
LINE
8
0
10
299.4511748
20
-82.0742895
11
282.5367076
21
-88.2306521
0
LINE
8
0
10
282.5367076
20
-88.2306521
11
276.380345
21
-71.3161849
0
LINE
8
0
10
274.5182325
20
-123.94566
11
290.8317726
21
-116.3385313
0
LINE
8
0
10
290.8317726
20
-116.3385313
11
298.4389013
21
-132.6520714
0
LINE
8
0
10
298.4389013
20
-132.6520714
11
282.1253612
21
-140.2592001
0
LINE
8
0
10
282.1253612
20
-140.2592001
11
274.5182325
21
-123.94566
0
LINE
8
0
10
266.4884857
20
-106.725812
11
282.8020258
21
-99.1186833
0
LINE
8
0
10
282.8020258
20
-99.1186833
11
290.4091545
21
-115.4322234
0
LINE
8
0
10
290.4091545
20
-115.4322234
11
274.0956144
21
-123.0393521
0
LINE
8
0
10
274.0956144
20
-123.0393521
11
266.4884857
21
-106.725812
0
LINE
8
0
10
258.4587387
20
-89.5059641
11
274.7722788
21
-81.8988354
0
LINE
8
0
10
274.7722788
20
-81.8988354
11
282.3794075
21
-98.2123755
0
LINE
8
0
10
282.3794075
20
-98.2123755
11
266.0658674
21
-105.8195042
0
LINE
8
0
10
266.0658674
20
-105.8195042
11
258.4587387
21
-89.5059641
0
LINE
8
0
10
258.5662395
20
-134.6943302
11
274.8797796
21
-127.0872015
0
LINE
8
0
10
274.8797796
20
-127.0872015
11
282.4869083
21
-143.4007416
0
LINE
8
0
10
282.4869083
20
-143.4007416
11
266.1733682
21
-151.0078703
0
LINE
8
0
10
266.1733682
20
-151.0078703
11
258.5662395
21
-134.6943302
0
LINE
8
0
10
250.5364924
20
-117.4744824
11
266.8500325
21
-109.8673537
0
LINE
8
0
10
266.8500325
20
-109.8673537
11
274.4571612
21
-126.1808938
0
LINE
8
0
10
274.4571612
20
-126.1808938
11
258.1436211
21
-133.7880225
0
LINE
8
0
10
258.1436211
20
-133.7880225
11
250.5364924
21
-117.4744824
0
LINE
8
0
10
242.5067456
20
-100.2546344
11
258.8202857
21
-92.6475057
0
LINE
8
0
10
258.8202857
20
-92.6475057
11
266.4274144
21
-108.9610458
0
LINE
8
0
10
266.4274144
20
-108.9610458
11
250.1138743
21
-116.5681745
0
LINE
8
0
10
250.1138743
20
-116.5681745
11
242.5067456
21
-100.2546344
0
LINE
8
0
10
267.5299471
20
-155.6920786
11
283.1184043
21
-146.6920786
0
LINE
8
0
10
283.1184043
20
-146.6920786
11
292.1184043
21
-162.2805358
0
LINE
8
0
10
292.1184043
20
-162.2805358
11
276.5299471
21
-171.2805358
0
LINE
8
0
10
276.5299471
20
-171.2805358
11
267.5299471
21
-155.6920786
0
LINE
8
0
10
252.5036676
20
-180.2350184
11
261.5036676
21
-164.6465612
0
LINE
8
0
10
261.5036676
20
-164.6465612
11
277.0921248
21
-173.6465612
0
LINE
8
0
10
277.0921248
20
-173.6465612
11
268.0921248
21
-189.2350184
0
LINE
8
0
10
268.0921248
20
-189.2350184
11
252.5036676
21
-180.2350184
0
LINE
8
0
10
247.5993094
20
-204.6951976
11
252.2580522
21
-187.3085328
0
LINE
8
0
10
252.2580522
20
-187.3085328
11
269.644717
21
-191.9672756
0
LINE
8
0
10
269.644717
20
-191.9672756
11
264.9859742
21
-209.3539404
0
LINE
8
0
10
264.9859742
20
-209.3539404
11
247.5993094
21
-204.6951976
0
ENDSEC
0
EOF