0
SECTION
2
HEADER
9
$INSUNITS
70
4
0
ENDSEC
0
SECTION
2
TABLES
0
TABLE
2
LTYPE
0
LTYPE
72
65
70
64
2
CONTINUOUS
3
______
73
0
40
0
0
ENDTAB
0
TABLE
2
LAYER
0
ENDTAB
0
ENDSEC
0
SECTION
2
ENTITIES
0
LINE
8
0
10
70.7097101
20
-124.9713155
11
68.30245
21
-121.7767734
0
LINE
8
0
10
67.9191849
20
-120.2947972
11
75.8998083
21
-63.5097111
0
LINE
8
0
10
98.5018631
20
-126.3151759
11
95.6363149
21
-128.4745214
0
LINE
8
0
10
94.1543387
20
-128.8577864
11
72.0286349
21
-125.7482216
0
LINE
8
0
10
76.6767144
20
-62.1907862
11
79.8712565
21
-59.783526
0
LINE
8
0
10
81.3532327
20
-59.400261
11
103.4789365
21
-62.5098258
0
LINE
8
0
10
104.7978613
20
-63.2867319
11
104.9385366
21
-63.4734143
0
LINE
8
0
10
119.6072351
20
-126.9741776
11
119.4131384
21
-127.5715458
0
LINE
8
0
10
118.9160724
20
-128.1535353
11
114.9829794
21
-130.1575463
0
LINE
8
0
10
113.4569644
20
-130.2776463
11
100.3235271
21
-126.0103339
0
LINE
8
0
10
106.6882286
20
-63.1806163
11
106.8273356
21
-62.7524891
0
LINE
8
0
10
107.8214676
20
-61.5885101
11
111.3854936
21
-59.7725481
0
LINE
8
0
10
112.9115086
20
-59.6524481
11
126.5300081
21
-64.0773667
0
LINE
8
0
10
123.4030438
20
-126.1531049
11
122.1933883
21
-125.7128263
0
LINE
8
0
10
129.0274273
20
-62.8592939
11
129.4328603
21
-61.7453759
0
LINE
8
0
10
129.9499346
20
-61.1810882
11
133.9505708
21
-59.3155609
0
LINE
8
0
10
135.4798475
20
-59.2487913
11
156.4755366
21
-66.8905971
0
LINE
8
0
10
157.604112
20
-67.9247457
11
159.2945851
21
-71.549977
0
LINE
8
0
10
159.3613547
20
-73.0792538
11
158.377738
21
-75.7817187
0
LINE
8
0
10
125.1685961
20
-135.5904425
11
123.8005156
21
-131.8316721
0
LINE
8
0
10
123.8672852
20
-130.3023953
11
124.5316191
21
-128.8777267
0
LINE
8
0
10
137.8455999
20
-142.1481704
11
126.2027447
21
-136.7190179
0
LINE
8
0
10
159.4118866
20
-78.2783745
11
174.7679353
21
-85.4390176
0
LINE
8
0
10
175.8020839
20
-86.567593
11
176.6864749
21
-88.9974371
0
LINE
8
0
10
177.7206235
20
-90.1260125
11
190.7199284
21
-96.1876879
0
LINE
8
0
10
191.754077
20
-97.3162633
11
192.7891882
21
-100.1602079
0
LINE
8
0
10
131.2532668
20
-164.7434765
11
130.2179906
21
-160.8797732
0
LINE
8
0
10
130.4177913
20
-159.362135
11
138.7324141
21
-144.960786
0
LINE
8
0
10
145.6038861
20
-173.7052183
11
132.1851184
21
-165.9578891
0
LINE
8
0
10
145.5788954
20
-173.798485
11
145.6038861
21
-173.7052183
0
LINE
8
0
10
153.9202617
20
-188.2461551
11
145.5788954
21
-173.798485
0
LINE
8
0
10
153.6146074
20
-189.7755638
11
153.9202617
21
-189.2461551
0
LINE
8
0
10
185.9446098
20
-208.7316758
11
185.0096863
21
-210.3510108
0
LINE
8
0
10
183.7952735
20
-211.2828625
11
165.1112293
21
-216.2892371
0
LINE
8
0
10
163.5935913
20
-216.0894362
11
160.1294899
21
-214.0894363
0
LINE
8
0
10
159.1976382
20
-212.8750235
11
153.4148065
21
-191.2932018
0
LINE
8
0
10
333.2978451
20
-128.4745214
11
330.4322969
21
-126.3151759
0
LINE
8
0
10
353.0343517
20
-63.5097111
11
361.0149751
21
-120.2947972
0
LINE
8
0
10
360.63171
20
-121.7767734
11
358.2244499
21
-124.9713155
0
LINE
8
0
10
356.9055251
20
-125.7482216
11
334.7798213
21
-128.8577864
0
LINE
8
0
10
323.9956234
20
-63.4734143
11
324.1362987
21
-63.2867319
0
LINE
8
0
10
325.4552235
20
-62.5098258
11
347.5809273
21
-59.400261
0
LINE
8
0
10
349.0629035
20
-59.783526
11
352.2574456
21
-62.1907862
0
LINE
8
0
10
313.9511806
20
-130.1575463
11
310.3871546
21
-128.3415843
0
LINE
8
0
10
309.3930226
20
-127.1776053
11
309.3269249
21
-126.9741776
0
LINE
8
0
10
328.6106329
20
-126.0103339
11
315.4771956
21
-130.2776463
0
LINE
8
0
10
302.4041519
20
-64.0773667
11
316.0226514
21
-59.6524481
0
LINE
8
0
10
317.5486664
20
-59.7725481
11
321.1126924
21
-61.5885101
0
LINE
8
0
10
322.1068244
20
-62.7524891
11
322.2459314
21
-63.1806163
0
LINE
8
0
10
306.7407717
20
-125.7128263
11
305.5311162
21
-126.1531049
0
LINE
8
0
10
270.556422
20
-75.7817187
11
269.5728053
21
-73.0792538
0
LINE
8
0
10
269.6395749
20
-71.549977
11
271.330048
21
-67.9247457
0
LINE
8
0
10
272.4586234
20
-66.8905971
11
293.4543125
21
-59.2487913
0
LINE
8
0
10
294.9835892
20
-59.3155609
11
298.6088205
21
-61.006034
0
LINE
8
0
10
299.6429691
20
-62.1346094
11
299.9067327
21
-62.8592939
0
LINE
8
0
10
304.4025409
20
-128.8777267
11
305.0668748
21
-130.3023953
0
LINE
8
0
10
305.1336444
20
-131.8316721
11
303.7655639
21
-135.5904425
0
LINE
8
0
10
302.7314153
20
-136.7190179
11
291.0885601
21
-142.1481704
0
LINE
8
0
10
252.2476851
20
-88.9974371
11
253.1320761
21
-86.567593
0
LINE
8
0
10
254.1662247
20
-85.4390176
11
269.5222734
21
-78.2783745
0
LINE
8
0
10
236.1449718
20
-100.1602079
11
237.180083
21
-97.3162633
0
LINE
8
0
10
238.2142316
20
-96.1876879
11
251.2135365
21
-90.1260125
0
LINE
8
0
10
290.2017459
20
-144.960786
11
298.5163687
21
-159.362135
0
LINE
8
0
10
298.7161694
20
-160.8797732
11
297.6808932
21
-164.7434765
0
LINE
8
0
10
296.7490416
20
-165.9578891
11
283.3302739
21
-173.7052183
0
LINE
8
0
10
283.3302739
20
-173.7052183
11
283.3552646
21
-173.798485
0
LINE
8
0
10
283.3552646
20
-173.798485
11
275.3025735
21
-187.7461551
0
LINE
8
0
10
268.8046701
20
-214.0894363
11
265.3405687
21
-216.0894362
0
LINE
8
0
10
263.8229307
20
-216.2892371
11
245.1388865
21
-211.2828625
0
LINE
8
0
10
243.9244737
20
-210.3510108
11
242.9895502
21
-208.7316758
0
LINE
8
0
10
275.3025735
20
-189.7461551
11
275.7337662
21
-190.4930028
0
LINE
8
0
10
275.7337662
20
-190.4930028
11
269.7365218
21
-212.8750235
0
LINE
8
0
10
234.2655866
20
-101.4761677
11
194.6685734
21
-101.4761677
0
LINE
8
0
10
187.6766606
20
-207.7316758
11
241.2574994
21
-207.7316758
0
ARC
8
0
10
69.899721
20
-120.5731434
40
2
50
172.0000003
51
216.9999993
0
ARC
8
0
10
77.8803444
20
-63.7880573
40
2
50
126.9999993
51
172.0000003
0
ARC
8
0
10
81.0748865
20
-61.3807971
40
2
50
82.0000003
51
126.9999993
0
ARC
8
0
10
103.2005903
20
-64.4903619
40
2
50
36.9999993
51
82.0000003
0
ARC
8
0
10
108.7294486
20
-63.3705231
40
2
50
117.0000006
51
161.9999994
0
ARC
8
0
10
112.2934746
20
-61.5545611
40
2
50
71.9999994
51
117.0000006
0
ARC
8
0
10
127.1480421
20
-62.1752537
40
2
50
251.9999994
51
340.0000019
0
ARC
8
0
10
134.7958073
20
-61.1281765
40
2
50
70.0000019
51
115.0000017
0
ARC
8
0
10
155.7914964
20
-68.7699823
40
2
50
25.0000017
51
70.0000019
0
ARC
8
0
10
157.4819695
20
-72.3952136
40
2
50
340.0000019
51
25.0000017
0
ARC
8
0
10
160.2571232
20
-76.4657589
40
2
50
160.0000019
51
244.9999983
0
ARC
8
0
10
173.9226987
20
-87.2516332
40
2
50
19.9999981
51
64.9999983
0
ARC
8
0
10
178.5658601
20
-88.3133969
40
2
50
199.9999981
51
244.9999983
0
ARC
8
0
10
189.8746918
20
-98.0003035
40
2
50
19.9999981
51
64.9999983
0
ARC
8
0
10
194.6685734
20
-99.4761677
40
2
50
199.9999981
51
270
0
ARC
8
0
10
234.2655866
20
-99.4761677
40
2
50
270
51
340.0000019
0
ARC
8
0
10
239.0594682
20
-98.0003035
40
2
50
115.0000017
51
160.0000019
0
ARC
8
0
10
250.3682999
20
-88.3133969
40
2
50
295.0000017
51
340.0000019
0
ARC
8
0
10
255.0114613
20
-87.2516332
40
2
50
115.0000017
51
160.0000019
0
ARC
8
0
10
268.6770368
20
-76.4657589
40
2
50
295.0000017
51
19.9999981
0
ARC
8
0
10
271.4521905
20
-72.3952136
40
2
50
154.9999983
51
199.9999981
0
ARC
8
0
10
273.1426636
20
-68.7699823
40
2
50
109.9999981
51
154.9999983
0
ARC
8
0
10
294.1383527
20
-61.1281765
40
2
50
64.9999983
51
109.9999981
0
ARC
8
0
10
297.7635839
20
-62.8186496
40
2
50
19.9999981
51
64.9999983
0
ARC
8
0
10
301.7861179
20
-62.1752537
40
2
50
199.9999981
51
288.0000006
0
ARC
8
0
10
316.6406854
20
-61.5545611
40
2
50
62.9999994
51
108.0000006
0
ARC
8
0
10
320.2047114
20
-63.3705231
40
2
50
18.0000006
51
62.9999994
0
ARC
8
0
10
325.7335697
20
-64.4903619
40
2
50
97.9999997
51
143.0000007
0
ARC
8
0
10
347.8592735
20
-61.3807971
40
2
50
53.0000007
51
97.9999997
0
ARC
8
0
10
351.0538156
20
-63.7880573
40
2
50
7.9999997
51
53.0000007
0
ARC
8
0
10
359.034439
20
-120.5731434
40
2
50
323.0000007
51
7.9999997
0
ARC
8
0
10
356.6271789
20
-123.7676855
40
2
50
277.9999997
51
323.0000007
0
ARC
8
0
10
334.5014751
20
-126.8772503
40
2
50
233.0000007
51
277.9999997
0
ARC
8
0
10
329.2286669
20
-127.9124469
40
2
50
53.0000007
51
108.0000006
0
ARC
8
0
10
314.8591616
20
-128.3755333
40
2
50
242.9999994
51
288.0000006
0
ARC
8
0
10
311.2951356
20
-126.5595713
40
2
50
198.0000006
51
242.9999994
0
ARC
8
0
10
307.4248119
20
-127.5922116
40
2
50
18.0000006
51
109.9999981
0
ARC
8
0
10
306.2151564
20
-128.0324901
40
2
50
109.9999981
51
205.0000017
0
ARC
8
0
10
303.2542592
20
-131.1476319
40
2
50
340.0000019
51
25.0000017
0
ARC
8
0
10
301.8861787
20
-134.9064023
40
2
50
295.0000017
51
340.0000019
0
ARC
8
0
10
291.9337967
20
-143.960786
40
2
50
115.0000017
51
210.0000001
0
ARC
8
0
10
296.7843179
20
-160.362135
40
2
50
344.9999966
51
30.0000001
0
ARC
8
0
10
295.7490416
20
-164.2258383
40
2
50
300.0000001
51
344.9999966
0
ARC
8
0
10
277.0346243
20
-188.7461551
40
2
50
149.9999999
51
210.0000001
0
ARC
8
0
10
267.8046701
20
-212.3573855
40
2
50
300.0000001
51
345.0000021
0
ARC
8
0
10
264.3405687
20
-214.3573854
40
2
50
255.0000021
51
300.0000001
0
ARC
8
0
10
245.6565245
20
-209.3510108
40
2
50
210.0000001
51
255.0000021
0
ARC
8
0
10
241.2574994
20
-209.7316758
40
2
50
30.0000001
51
90
0
ARC
8
0
10
187.6766606
20
-209.7316758
40
2
50
90
51
149.9999999
0
ARC
8
0
10
183.2776355
20
-209.3510108
40
2
50
284.9999979
51
329.9999999
0
ARC
8
0
10
164.5935913
20
-214.3573854
40
2
50
239.9999999
51
284.9999979
0
ARC
8
0
10
161.1294899
20
-212.3573855
40
2
50
194.9999979
51
239.9999999
0
ARC
8
0
10
155.3466582
20
-190.7755638
40
2
50
149.9999999
51
194.9999979
0
ARC
8
0
10
133.1851184
20
-164.2258383
40
2
50
195.0000034
51
239.9999999
0
ARC
8
0
10
132.1498421
20
-160.362135
40
2
50
149.9999999
51
195.0000034
0
ARC
8
0
10
137.0003633
20
-143.960786
40
2
50
329.9999999
51
64.9999983
0
ARC
8
0
10
127.0479813
20
-134.9064023
40
2
50
199.9999981
51
244.9999983
0
ARC
8
0
10
125.6799008
20
-131.1476319
40
2
50
154.9999983
51
199.9999981
0
ARC
8
0
10
122.7190036
20
-128.0324901
40
2
50
334.9999983
51
70.0000019
0
ARC
8
0
10
121.5093481
20
-127.5922116
40
2
50
70.0000019
51
161.9999994
0
ARC
8
0
10
114.0749984
20
-128.3755333
40
2
50
251.9999994
51
297.0000006
0
ARC
8
0
10
99.7054931
20
-127.9124469
40
2
50
71.9999994
51
126.9999993
0
ARC
8
0
10
94.4326849
20
-126.8772503
40
2
50
262.0000003
51
306.9999993
0
ARC
8
0
10
72.3069811
20
-123.7676855
40
2
50
216.9999993
51
262.0000003
0
ARC
8
0
10
105.7371721
20
-62.8715993
40
1
50
216.9999993
51
341.9999994
0
ARC
8
0
10
130.3725529
20
-62.087396
40
1
50
115.0000017
51
160.0000019
0
ARC
8
0
10
323.1969879
20
-62.8715993
40
1
50
198.0000006
51
323.0000007
0
ARC
8
0
10
153.0542363
20
-188.7461551
40
1
50
329.9999999
51
30.0000001
0
ARC
8
0
10
118.4620819
20
-127.2625288
40
1
50
297.0000006
51
341.9999994
0
ENDSEC
0
EOF